<mxfile host="app.diagrams.net" modified="2024-05-20T12:52:56.298Z" agent="Mozilla/5.0 (Windows NT 10.0; Win64; x64) AppleWebKit/537.36 (KHTML, like Gecko) Chrome/124.0.0.0 Safari/537.36" etag="lhdxoXxA_yoh-zOr49Ng" version="24.3.1" type="github">
  <diagram name="Page-1" id="-I0MyFCe74SBWzDTvCro">
    <mxGraphModel dx="1068" dy="587" grid="1" gridSize="10" guides="1" tooltips="1" connect="1" arrows="1" fold="1" page="1" pageScale="1" pageWidth="850" pageHeight="1100" math="0" shadow="0">
      <root>
        <mxCell id="0" />
        <mxCell id="1" parent="0" />
        <mxCell id="5hsAyEmP8SzY6PerSiog-17" value="" style="shape=delay;whiteSpace=wrap;html=1;" vertex="1" parent="1">
          <mxGeometry x="350" y="50" width="80" height="40" as="geometry" />
        </mxCell>
        <mxCell id="5hsAyEmP8SzY6PerSiog-18" value="" style="shape=delay;whiteSpace=wrap;html=1;direction=west;" vertex="1" parent="1">
          <mxGeometry x="140" y="50" width="80" height="40" as="geometry" />
        </mxCell>
        <mxCell id="5hsAyEmP8SzY6PerSiog-19" value="" style="verticalLabelPosition=bottom;verticalAlign=top;html=1;shape=mxgraph.basic.rect;fillColor2=none;strokeWidth=1;size=20;indent=5;" vertex="1" parent="1">
          <mxGeometry x="210" y="50" width="140" height="40" as="geometry" />
        </mxCell>
        <mxCell id="5hsAyEmP8SzY6PerSiog-20" value="" style="shape=delay;whiteSpace=wrap;html=1;" vertex="1" parent="1">
          <mxGeometry x="540" y="50" width="80" height="40" as="geometry" />
        </mxCell>
        <mxCell id="5hsAyEmP8SzY6PerSiog-21" value="" style="shape=delay;whiteSpace=wrap;html=1;direction=west;" vertex="1" parent="1">
          <mxGeometry x="430" y="50" width="80" height="40" as="geometry" />
        </mxCell>
        <mxCell id="5hsAyEmP8SzY6PerSiog-22" value="" style="verticalLabelPosition=bottom;verticalAlign=top;html=1;shape=mxgraph.basic.rect;fillColor2=none;strokeWidth=1;size=20;indent=5;" vertex="1" parent="1">
          <mxGeometry x="490" y="50" width="50" height="40" as="geometry" />
        </mxCell>
        <mxCell id="5hsAyEmP8SzY6PerSiog-23" value="" style="verticalLabelPosition=bottom;verticalAlign=top;html=1;shape=mxgraph.basic.patternFillRect;fillStyle=diag;step=5;fillStrokeWidth=0.2;fillStrokeColor=#dddddd;" vertex="1" parent="1">
          <mxGeometry x="40" y="220" width="240" height="60" as="geometry" />
        </mxCell>
        <mxCell id="5hsAyEmP8SzY6PerSiog-24" value="" style="verticalLabelPosition=bottom;verticalAlign=top;html=1;shape=mxgraph.basic.patternFillRect;fillStyle=diag;step=5;fillStrokeWidth=0.2;fillStrokeColor=#dddddd;" vertex="1" parent="1">
          <mxGeometry x="340" y="220" width="150" height="60" as="geometry" />
        </mxCell>
        <mxCell id="5hsAyEmP8SzY6PerSiog-25" value="" style="verticalLabelPosition=bottom;verticalAlign=top;html=1;shape=mxgraph.basic.patternFillRect;fillStyle=diag;step=5;fillStrokeWidth=0.2;fillStrokeColor=#dddddd;" vertex="1" parent="1">
          <mxGeometry x="565" y="220" width="240" height="60" as="geometry" />
        </mxCell>
        <mxCell id="5hsAyEmP8SzY6PerSiog-31" value="Class |||" style="text;html=1;align=center;verticalAlign=middle;resizable=0;points=[];autosize=1;strokeColor=none;fillColor=none;" vertex="1" parent="1">
          <mxGeometry x="390" y="180" width="70" height="30" as="geometry" />
        </mxCell>
        <mxCell id="5hsAyEmP8SzY6PerSiog-32" value="Class |" style="text;html=1;align=center;verticalAlign=middle;resizable=0;points=[];autosize=1;strokeColor=none;fillColor=none;" vertex="1" parent="1">
          <mxGeometry x="630" y="180" width="60" height="30" as="geometry" />
        </mxCell>
        <mxCell id="5hsAyEmP8SzY6PerSiog-33" value="Локусы для молекул Class ||" style="text;html=1;align=center;verticalAlign=middle;resizable=0;points=[];autosize=1;strokeColor=none;fillColor=none;" vertex="1" parent="1">
          <mxGeometry x="40" y="180" width="180" height="30" as="geometry" />
        </mxCell>
        <mxCell id="5hsAyEmP8SzY6PerSiog-39" value="HLA-DP" style="text;html=1;align=center;verticalAlign=middle;whiteSpace=wrap;rounded=0;" vertex="1" parent="1">
          <mxGeometry x="50" y="235" width="70" height="30" as="geometry" />
        </mxCell>
        <mxCell id="5hsAyEmP8SzY6PerSiog-40" value="HLA-DQ" style="text;html=1;align=center;verticalAlign=middle;whiteSpace=wrap;rounded=0;" vertex="1" parent="1">
          <mxGeometry x="130" y="235" width="70" height="30" as="geometry" />
        </mxCell>
        <mxCell id="5hsAyEmP8SzY6PerSiog-41" value="HLA-DR" style="text;html=1;align=center;verticalAlign=middle;whiteSpace=wrap;rounded=0;" vertex="1" parent="1">
          <mxGeometry x="210" y="235" width="70" height="30" as="geometry" />
        </mxCell>
        <mxCell id="5hsAyEmP8SzY6PerSiog-42" value="HLA-C" style="text;html=1;align=center;verticalAlign=middle;whiteSpace=wrap;rounded=0;" vertex="1" parent="1">
          <mxGeometry x="565" y="235" width="60" height="30" as="geometry" />
        </mxCell>
        <mxCell id="5hsAyEmP8SzY6PerSiog-43" value="HLA-B" style="text;html=1;align=center;verticalAlign=middle;whiteSpace=wrap;rounded=0;" vertex="1" parent="1">
          <mxGeometry x="625" y="235" width="60" height="30" as="geometry" />
        </mxCell>
        <mxCell id="5hsAyEmP8SzY6PerSiog-44" value="HLA-A" style="text;html=1;align=center;verticalAlign=middle;whiteSpace=wrap;rounded=0;" vertex="1" parent="1">
          <mxGeometry x="720" y="235" width="60" height="30" as="geometry" />
        </mxCell>
        <mxCell id="5hsAyEmP8SzY6PerSiog-46" value="Гены, кодирующие молекуля классов |, ||, |||" style="rounded=1;whiteSpace=wrap;html=1;" vertex="1" parent="1">
          <mxGeometry x="50" y="130" width="700" height="30" as="geometry" />
        </mxCell>
        <mxCell id="5hsAyEmP8SzY6PerSiog-47" value="Гликопротеины из двух цепей" style="rounded=1;whiteSpace=wrap;html=1;" vertex="1" parent="1">
          <mxGeometry x="40" y="320" width="250" height="60" as="geometry" />
        </mxCell>
      </root>
    </mxGraphModel>
  </diagram>
</mxfile>
